<mxfile host="app.diagrams.net" modified="2023-11-08T07:07:51.033Z" agent="Mozilla/5.0 (Windows NT 10.0; Win64; x64) AppleWebKit/537.36 (KHTML, like Gecko) Chrome/119.0.0.0 Safari/537.36" etag="L0LDQDVxLOY-KXVk-Opl" version="22.0.0" type="device">
  <diagram name="Страница — 1" id="9KN6D9DLXYpE19z69_vw">
    <mxGraphModel dx="913" dy="499" grid="1" gridSize="10" guides="1" tooltips="1" connect="1" arrows="1" fold="1" page="1" pageScale="1" pageWidth="827" pageHeight="1169" math="0" shadow="0">
      <root>
        <mxCell id="0" />
        <mxCell id="1" parent="0" />
        <mxCell id="zlBrMga1oscnO7P-FWvH-27" value="" style="rounded=0;whiteSpace=wrap;html=1;fillColor=none;dashed=1;" vertex="1" parent="1">
          <mxGeometry x="240" y="160" width="230" height="360" as="geometry" />
        </mxCell>
        <mxCell id="zlBrMga1oscnO7P-FWvH-3" value="" style="edgeStyle=orthogonalEdgeStyle;rounded=0;orthogonalLoop=1;jettySize=auto;html=1;endArrow=none;endFill=0;" edge="1" parent="1" source="zlBrMga1oscnO7P-FWvH-1" target="zlBrMga1oscnO7P-FWvH-2">
          <mxGeometry relative="1" as="geometry" />
        </mxCell>
        <mxCell id="zlBrMga1oscnO7P-FWvH-1" value="&lt;font style=&quot;font-size: 14px;&quot;&gt;Deployer&lt;/font&gt;" style="rounded=0;whiteSpace=wrap;html=1;fillColor=#dae8fc;strokeColor=#6c8ebf;" vertex="1" parent="1">
          <mxGeometry x="60" y="110" width="120" height="30" as="geometry" />
        </mxCell>
        <mxCell id="zlBrMga1oscnO7P-FWvH-15" style="rounded=0;orthogonalLoop=1;jettySize=auto;html=1;entryX=0;entryY=0.5;entryDx=0;entryDy=0;" edge="1" parent="1" source="zlBrMga1oscnO7P-FWvH-2" target="zlBrMga1oscnO7P-FWvH-4">
          <mxGeometry relative="1" as="geometry" />
        </mxCell>
        <mxCell id="zlBrMga1oscnO7P-FWvH-16" style="rounded=0;orthogonalLoop=1;jettySize=auto;html=1;entryX=0;entryY=0.5;entryDx=0;entryDy=0;" edge="1" parent="1" source="zlBrMga1oscnO7P-FWvH-2" target="zlBrMga1oscnO7P-FWvH-6">
          <mxGeometry relative="1" as="geometry" />
        </mxCell>
        <mxCell id="zlBrMga1oscnO7P-FWvH-17" style="rounded=0;orthogonalLoop=1;jettySize=auto;html=1;entryX=0;entryY=0.5;entryDx=0;entryDy=0;" edge="1" parent="1" source="zlBrMga1oscnO7P-FWvH-2" target="zlBrMga1oscnO7P-FWvH-7">
          <mxGeometry relative="1" as="geometry" />
        </mxCell>
        <mxCell id="zlBrMga1oscnO7P-FWvH-18" style="rounded=0;orthogonalLoop=1;jettySize=auto;html=1;entryX=0;entryY=0.5;entryDx=0;entryDy=0;" edge="1" parent="1" source="zlBrMga1oscnO7P-FWvH-2" target="zlBrMga1oscnO7P-FWvH-8">
          <mxGeometry relative="1" as="geometry" />
        </mxCell>
        <mxCell id="zlBrMga1oscnO7P-FWvH-21" value="" style="edgeStyle=orthogonalEdgeStyle;rounded=0;orthogonalLoop=1;jettySize=auto;html=1;endArrow=none;endFill=0;" edge="1" parent="1" source="zlBrMga1oscnO7P-FWvH-2" target="zlBrMga1oscnO7P-FWvH-20">
          <mxGeometry relative="1" as="geometry" />
        </mxCell>
        <mxCell id="zlBrMga1oscnO7P-FWvH-2" value="" style="rounded=0;whiteSpace=wrap;html=1;fillColor=#dae8fc;strokeColor=#6c8ebf;" vertex="1" parent="1">
          <mxGeometry x="110" y="192.5" width="20" height="30" as="geometry" />
        </mxCell>
        <mxCell id="zlBrMga1oscnO7P-FWvH-4" value="Deployment" style="rounded=0;whiteSpace=wrap;html=1;fillColor=#d5e8d4;strokeColor=#82b366;" vertex="1" parent="1">
          <mxGeometry x="270" y="185" width="120" height="45" as="geometry" />
        </mxCell>
        <mxCell id="zlBrMga1oscnO7P-FWvH-6" value="Job" style="rounded=0;whiteSpace=wrap;html=1;fillColor=#d5e8d4;strokeColor=#82b366;" vertex="1" parent="1">
          <mxGeometry x="270" y="250" width="120" height="45" as="geometry" />
        </mxCell>
        <mxCell id="zlBrMga1oscnO7P-FWvH-7" value="StatefulSet" style="rounded=0;whiteSpace=wrap;html=1;fillColor=#d5e8d4;strokeColor=#82b366;" vertex="1" parent="1">
          <mxGeometry x="270" y="320" width="120" height="45" as="geometry" />
        </mxCell>
        <mxCell id="zlBrMga1oscnO7P-FWvH-9" style="edgeStyle=orthogonalEdgeStyle;rounded=0;orthogonalLoop=1;jettySize=auto;html=1;entryX=1;entryY=0.5;entryDx=0;entryDy=0;" edge="1" parent="1" source="zlBrMga1oscnO7P-FWvH-8" target="zlBrMga1oscnO7P-FWvH-7">
          <mxGeometry relative="1" as="geometry">
            <Array as="points">
              <mxPoint x="410" y="440" />
              <mxPoint x="410" y="343" />
            </Array>
          </mxGeometry>
        </mxCell>
        <mxCell id="zlBrMga1oscnO7P-FWvH-10" style="edgeStyle=orthogonalEdgeStyle;rounded=0;orthogonalLoop=1;jettySize=auto;html=1;entryX=1;entryY=0.5;entryDx=0;entryDy=0;" edge="1" parent="1" target="zlBrMga1oscnO7P-FWvH-6">
          <mxGeometry relative="1" as="geometry">
            <mxPoint x="370" y="440" as="sourcePoint" />
            <mxPoint x="370" y="272.5" as="targetPoint" />
            <Array as="points">
              <mxPoint x="420" y="440" />
              <mxPoint x="420" y="273" />
            </Array>
          </mxGeometry>
        </mxCell>
        <mxCell id="zlBrMga1oscnO7P-FWvH-8" value="Deployment Status Provisioner" style="rounded=0;whiteSpace=wrap;html=1;fillColor=#dae8fc;strokeColor=#6c8ebf;fontStyle=1" vertex="1" parent="1">
          <mxGeometry x="270" y="410" width="120" height="60" as="geometry" />
        </mxCell>
        <mxCell id="zlBrMga1oscnO7P-FWvH-12" style="edgeStyle=orthogonalEdgeStyle;rounded=0;orthogonalLoop=1;jettySize=auto;html=1;entryX=1;entryY=0.5;entryDx=0;entryDy=0;exitX=1;exitY=0.5;exitDx=0;exitDy=0;" edge="1" parent="1" source="zlBrMga1oscnO7P-FWvH-8">
          <mxGeometry relative="1" as="geometry">
            <mxPoint x="370" y="377" as="sourcePoint" />
            <mxPoint x="390" y="210" as="targetPoint" />
            <Array as="points">
              <mxPoint x="430" y="440" />
              <mxPoint x="430" y="210" />
            </Array>
          </mxGeometry>
        </mxCell>
        <mxCell id="zlBrMga1oscnO7P-FWvH-19" value="Deploy" style="text;html=1;strokeColor=none;fillColor=none;align=center;verticalAlign=middle;whiteSpace=wrap;rounded=0;labelBorderColor=#FFFFFF;labelBackgroundColor=#FFFFFF;fontSize=15;" vertex="1" parent="1">
          <mxGeometry x="150" y="240" width="80" height="30" as="geometry" />
        </mxCell>
        <mxCell id="zlBrMga1oscnO7P-FWvH-25" value="Check status" style="edgeStyle=orthogonalEdgeStyle;rounded=0;orthogonalLoop=1;jettySize=auto;html=1;entryX=0;entryY=0.5;entryDx=0;entryDy=0;fontSize=13;" edge="1" parent="1">
          <mxGeometry x="-0.2857" relative="1" as="geometry">
            <mxPoint x="130" y="455" as="sourcePoint" />
            <mxPoint x="270" y="455" as="targetPoint" />
            <Array as="points">
              <mxPoint x="190" y="455" />
              <mxPoint x="190" y="455" />
            </Array>
            <mxPoint as="offset" />
          </mxGeometry>
        </mxCell>
        <mxCell id="zlBrMga1oscnO7P-FWvH-35" value="" style="edgeStyle=orthogonalEdgeStyle;rounded=0;orthogonalLoop=1;jettySize=auto;html=1;endArrow=none;endFill=0;" edge="1" parent="1" source="zlBrMga1oscnO7P-FWvH-20" target="zlBrMga1oscnO7P-FWvH-34">
          <mxGeometry relative="1" as="geometry" />
        </mxCell>
        <mxCell id="zlBrMga1oscnO7P-FWvH-20" value="" style="rounded=0;whiteSpace=wrap;html=1;fillColor=#dae8fc;strokeColor=#6c8ebf;" vertex="1" parent="1">
          <mxGeometry x="110" y="440" width="20" height="30" as="geometry" />
        </mxCell>
        <mxCell id="zlBrMga1oscnO7P-FWvH-22" style="edgeStyle=orthogonalEdgeStyle;rounded=0;orthogonalLoop=1;jettySize=auto;html=1;entryX=0.25;entryY=1;entryDx=0;entryDy=0;exitX=1;exitY=0.75;exitDx=0;exitDy=0;" edge="1" parent="1" source="zlBrMga1oscnO7P-FWvH-8" target="zlBrMga1oscnO7P-FWvH-8">
          <mxGeometry relative="1" as="geometry" />
        </mxCell>
        <mxCell id="zlBrMga1oscnO7P-FWvH-24" value="Write status" style="edgeLabel;html=1;align=center;verticalAlign=middle;resizable=0;points=[];fontSize=12;fontStyle=1" vertex="1" connectable="0" parent="zlBrMga1oscnO7P-FWvH-22">
          <mxGeometry x="-0.0966" y="1" relative="1" as="geometry">
            <mxPoint x="-22" as="offset" />
          </mxGeometry>
        </mxCell>
        <mxCell id="zlBrMga1oscnO7P-FWvH-28" value="application namespace" style="text;html=1;strokeColor=none;fillColor=default;align=center;verticalAlign=middle;whiteSpace=wrap;rounded=0;" vertex="1" parent="1">
          <mxGeometry x="290" y="510" width="130" height="30" as="geometry" />
        </mxCell>
        <mxCell id="zlBrMga1oscnO7P-FWvH-31" value="Check resources&amp;nbsp;&lt;br style=&quot;font-size: 12px;&quot;&gt;status" style="text;html=1;strokeColor=none;fillColor=default;align=center;verticalAlign=middle;whiteSpace=wrap;rounded=0;fontSize=12;fontStyle=1" vertex="1" parent="1">
          <mxGeometry x="350" y="372" width="110" height="30" as="geometry" />
        </mxCell>
        <mxCell id="zlBrMga1oscnO7P-FWvH-34" value="" style="ellipse;whiteSpace=wrap;html=1;fillColor=#d5e8d4;strokeColor=#82b366;rounded=0;" vertex="1" parent="1">
          <mxGeometry x="112.5" y="520" width="15" height="10" as="geometry" />
        </mxCell>
      </root>
    </mxGraphModel>
  </diagram>
</mxfile>
